<?xml version="1.0" standalone="no"?>
<!DOCTYPE svg PUBLIC "-//W3C//DTD SVG 20010904//EN"
 "http://www.w3.org/TR/2001/REC-SVG-20010904/DTD/svg10.dtd">
<svg version="1.0" xmlns="http://www.w3.org/2000/svg"
 width="300.000000pt" height="300.000000pt" viewBox="0 0 300.000000 300.000000"
 preserveAspectRatio="xMidYMid meet">
<metadata>
Created by potrace 1.14, written by Peter Selinger 2001-2017
</metadata>
<g transform="translate(0.000000,300.000000) scale(0.100000,-0.100000)"
fill="#000000" stroke="none">
<path d="M856 2608 c43 -46 361 -368 706 -717 l628 -633 34 6 c19 4 67 23 107
43 99 50 194 145 243 244 59 120 68 188 63 454 -3 201 -7 238 -25 296 -28 85
-84 170 -158 240 -74 70 -138 107 -223 131 -61 17 -118 18 -760 18 l-694 0 79
-82z"/>
<path d="M280 1803 c5 -10 342 -352 747 -761 l738 -743 482 3 482 3 -317 320
c-175 176 -512 517 -750 758 l-433 437 -480 0 c-454 0 -479 -1 -469 -17z"/>
<path d="M440 712 l0 -412 406 0 406 0 -60 68 c-34 37 -216 222 -406 412
l-346 345 0 -413z"/>
</g>
</svg>
